<?xml version="1.0" standalone="no"?>
<!DOCTYPE svg PUBLIC "-//W3C//DTD SVG 20010904//EN"
 "http://www.w3.org/TR/2001/REC-SVG-20010904/DTD/svg10.dtd">
<svg version="1.0" xmlns="http://www.w3.org/2000/svg"
 width="260.000000pt" height="260.000000pt" viewBox="0 0 260.000000 260.000000"
 preserveAspectRatio="xMidYMid meet">
<metadata>
Created by potrace 1.11, written by Peter Selinger 2001-2013
</metadata>
<g transform="translate(0.000000,260.000000) scale(0.100000,-0.100000)"
fill="#000000" stroke="none">
<path d="M237 2335 c-9 -27 7 -54 37 -61 48 -10 101 -43 120 -75 10 -17 35
-92 57 -167 21 -75 43 -153 49 -172 10 -36 50 -176 145 -515 31 -110 65 -230
76 -267 l20 -68 38 0 c28 0 41 5 46 18 4 9 45 127 90 262 46 135 119 349 163
475 43 127 81 237 84 245 3 8 46 -113 97 -270 51 -157 99 -302 107 -323 19
-52 18 -62 -14 -110 -108 -163 -142 -410 -86 -632 42 -167 168 -328 314 -398
220 -107 483 -74 637 80 56 56 109 134 131 194 10 24 7 28 -24 42 l-34 16 -26
-54 c-41 -84 -114 -159 -192 -197 -62 -31 -74 -33 -167 -33 -93 0 -105 2 -167
33 -115 57 -211 185 -252 338 -21 76 -31 231 -21 319 l8 70 12 -35 c11 -33 14
-35 56 -35 l43 0 67 216 c36 118 71 225 77 236 21 38 167 56 239 30 53 -20
119 -72 152 -121 37 -53 82 -157 101 -234 14 -52 14 -52 53 -52 l39 0 -5 233
c-3 127 -6 233 -6 235 -1 1 -17 2 -36 2 -26 0 -39 -7 -56 -29 l-21 -29 -72 33
c-86 40 -187 59 -284 53 -39 -2 -72 -3 -72 -2 0 0 9 27 19 60 11 32 40 127 64
209 111 371 111 371 235 415 24 8 44 18 43 23 -1 4 -1 17 -1 30 l0 22 -235 0
c-129 0 -236 -2 -236 -5 -6 -24 -5 -52 3 -56 5 -3 24 -8 41 -10 54 -8 117 -35
128 -55 14 -27 0 -95 -82 -396 -74 -272 -75 -273 -90 -273 -5 0 -31 -11 -59
-24 l-49 -24 -137 413 -136 412 -46 -1 -46 -1 -160 -477 c-89 -262 -163 -479
-166 -481 -3 -3 -52 157 -108 356 -137 480 -142 499 -131 519 9 17 47 28 113
32 44 3 49 8 50 44 l1 28 -267 0 c-162 -1 -269 -5 -271 -11z m1372 -971 c-10
-23 -13 -25 -16 -11 -3 10 1 25 8 33 17 21 21 11 8 -22z"/>
</g>
</svg>
